<?xml version="1.0" encoding="UTF-8"?>
<svg version="1.1" xmlns="http://www.w3.org/2000/svg" width="820" height="820">
<path d="M0 0 C0.90276181 -0.00367669 1.80552361 -0.00735338 2.73564184 -0.01114148 C5.77326033 -0.02219108 8.81084463 -0.02602434 11.84848022 -0.02983093 C14.02148548 -0.03609467 16.19448967 -0.04274139 18.36749268 -0.04974365 C24.28095015 -0.06716279 30.19439953 -0.07770814 36.1078763 -0.08594918 C39.80205584 -0.09109793 43.49623285 -0.09717375 47.19041061 -0.10346031 C58.74746101 -0.12251586 70.304505 -0.13674563 81.86156809 -0.14507228 C95.20408785 -0.1548438 108.54642393 -0.18115971 121.88888705 -0.22157317 C132.19983233 -0.25173289 142.51073004 -0.26654107 152.82171857 -0.26985329 C158.98070404 -0.27220412 165.13951231 -0.28116901 171.29845047 -0.30631447 C177.09492359 -0.32959716 182.89110286 -0.33382743 188.68761063 -0.32355309 C190.81241839 -0.32305765 192.93724062 -0.32938025 195.06200409 -0.34310913 C197.96893283 -0.36083729 200.87480813 -0.35371701 203.78173828 -0.34057617 C204.61726687 -0.35154542 205.45279546 -0.36251466 206.3136431 -0.37381631 C215.52944396 -0.27363708 223.63188547 3.84343565 230.27182007 10.14717102 C238.19167033 19.64382405 239.72007626 29.0660468 239.6521368 41.15554619 C239.65679672 42.45255272 239.66145664 43.74955925 239.66625777 45.08586901 C239.67874611 48.68162696 239.67262713 52.2771471 239.66342409 55.87290603 C239.65670904 59.78650776 239.66738305 63.70006883 239.67581993 67.61366189 C239.68819231 74.47139302 239.68939681 81.32905575 239.6832695 88.18679428 C239.67418225 98.38455864 239.68220741 108.58225967 239.69356074 118.78001916 C239.71323708 136.99334289 239.71557321 155.20663818 239.71036554 173.41997 C239.70581009 189.35991577 239.70640539 205.29985028 239.71220589 221.23979568 C239.71296275 223.37714985 239.71371873 225.51450402 239.71447383 227.65185819 C239.71561901 230.87257651 239.71676889 234.09329482 239.71793307 237.31401313 C239.72863972 267.26137988 239.73336163 297.20874287 239.72546291 327.15611076 C239.72501715 328.8498113 239.72501715 328.8498113 239.72456239 330.57772801 C239.7221134 339.74735447 239.71950184 348.91698088 239.71687825 358.08660729 C239.70677535 393.85632475 239.7151314 429.62599526 239.7383728 465.39570618 C239.7644378 505.57616156 239.77729538 545.75658869 239.77018505 585.93705285 C239.76946898 590.22034017 239.7687946 594.50362749 239.76814461 598.78691483 C239.7679748 599.84158164 239.76780499 600.89624845 239.76763003 601.98287486 C239.76532589 617.91177484 239.77330953 633.8406486 239.78643608 649.76954269 C239.80133566 667.88238112 239.80220612 685.99515805 239.78436517 704.10799514 C239.77479073 714.24600582 239.77626037 724.38387312 239.79359986 734.52187428 C239.80407348 741.29331463 239.80001132 748.06464554 239.78411982 754.83607508 C239.77547158 758.69450818 239.77310333 762.55265994 239.78838914 766.4110788 C239.80470988 770.56998453 239.79003316 774.72821343 239.77239132 778.88711357 C239.78204183 780.08136371 239.79169234 781.27561385 239.8016353 782.50605339 C239.70737545 793.30142655 237.04832962 803.30447841 229.27182007 811.14717102 C221.04090965 817.93029915 214.31239166 820.45341389 203.75047588 820.40443993 C202.79400643 820.407946 201.83753697 820.41145208 200.85208359 820.41506439 C197.63440953 820.42439752 194.4169157 820.41945009 191.19923401 820.41459656 C188.874081 820.41833184 186.54892925 820.42293288 184.2237795 820.4283272 C178.49561572 820.43930125 172.76750206 820.44092549 167.03932947 820.43860549 C160.1781412 820.4363333 153.31698083 820.44561347 146.45580058 820.45516423 C132.22984278 820.47451331 118.00389939 820.48013278 103.77792998 820.48127834 C92.79273464 820.48219716 81.80754496 820.48631244 70.82235146 820.4926796 C67.66114611 820.49447466 64.49994076 820.49625429 61.3387354 820.49802935 C60.1599342 820.4986925 60.1599342 820.4986925 58.95731883 820.49936904 C36.85019169 820.51167864 14.74306651 820.51957004 -7.36406422 820.51868248 C-8.6144794 820.51863574 -8.6144794 820.51863574 -9.8901555 820.51858806 C-14.11531268 820.51842185 -18.34046985 820.51822376 -22.56562702 820.51801865 C-23.40477017 820.51797876 -24.24391333 820.51793887 -25.10848507 820.51789777 C-26.80543714 820.51781689 -28.5023892 820.5177333 -30.19934127 820.51764699 C-56.60358881 820.51642136 -83.00778498 820.53143623 -109.41201782 820.55879211 C-139.07162375 820.58950798 -168.73119593 820.60672492 -198.39081877 820.60486567 C-201.55296719 820.60471641 -204.7151156 820.60461899 -207.87726402 820.60455704 C-208.65587508 820.60453373 -209.43448615 820.60451042 -210.23669148 820.6044864 C-222.77061383 820.60442484 -235.30449161 820.61720059 -247.8384007 820.63442157 C-260.43345684 820.65136875 -273.02844774 820.65335906 -285.62350897 820.64020292 C-292.44784298 820.63345903 -299.27202957 820.63308589 -306.09634781 820.65090942 C-312.34185597 820.66657913 -318.58707352 820.66383879 -324.83257433 820.64634116 C-327.09364506 820.64325782 -329.35473716 820.6469535 -331.61578272 820.65806131 C-334.68731208 820.67215304 -337.75781793 820.66161843 -340.82931232 820.64494896 C-341.70880495 820.65488532 -342.58829757 820.66482168 -343.49444148 820.67505914 C-352.85299235 820.56755388 -360.97118722 816.56203752 -367.72817993 810.14717102 C-376.03012511 800.19234988 -377.1748363 790.32964534 -377.11585999 777.69969177 C-377.12003766 776.23958041 -377.12551755 774.77947229 -377.1321798 773.31937015 C-377.14659641 769.32471868 -377.14240159 765.3302742 -377.13501298 761.33561158 C-377.1302742 757.02057108 -377.14279746 752.70557491 -377.1530304 748.39054871 C-377.17020996 739.9437986 -377.17106013 731.4971229 -377.16581749 723.05035986 C-377.1617729 716.18328862 -377.16322278 709.31623935 -377.16856575 702.44916916 C-377.16931417 701.47108664 -377.17006259 700.49300412 -377.1708337 699.48528274 C-377.1723652 697.49818159 -377.17390355 695.51108044 -377.17544866 693.52397929 C-377.18917072 674.89710494 -377.18373814 656.27027261 -377.17226345 637.64339922 C-377.16233191 620.6120636 -377.1752709 603.58083663 -377.19919764 586.54951777 C-377.22359514 569.05092639 -377.23319488 551.55238561 -377.22654492 534.05377758 C-377.22305408 524.23397657 -377.22527583 514.41425911 -377.24279594 504.59447098 C-377.25752606 496.23491937 -377.25814279 487.87551014 -377.24072503 479.5159613 C-377.23221924 475.25328594 -377.2300551 470.99086485 -377.24537659 466.72820282 C-377.25924637 462.82096051 -377.25443149 458.91418975 -377.23513735 455.00697456 C-377.23138401 453.59857941 -377.23428007 452.19014627 -377.244749 450.78178503 C-377.32828408 438.67685734 -375.30067848 428.15422019 -366.72817993 419.14717102 C-357.46386117 410.69011654 -348.66386006 409.70534958 -336.50942993 409.80659485 C-335.07969684 409.80744223 -333.64996244 409.80696381 -332.2202301 409.80526733 C-328.35914084 409.80441029 -324.49833395 409.82198856 -320.63731003 409.84298921 C-316.59477946 409.86180478 -312.55224167 409.86351028 -308.50967407 409.86706543 C-300.86357106 409.87637161 -293.21759747 409.90096595 -285.57155132 409.9311139 C-276.86296454 409.96470246 -268.15437142 409.9811551 -259.44573593 409.9962002 C-241.53981069 410.02751687 -223.63400573 410.08024945 -205.72817993 410.14717102 C-205.73371069 408.78495139 -205.73371069 408.78495139 -205.73935318 407.39521217 C-205.82776994 385.27695732 -205.89392156 363.15873302 -205.93542862 341.04033852 C-205.95603571 330.34395111 -205.98412092 319.64768182 -206.02993774 308.95137024 C-206.06986219 299.62622 -206.09562621 290.30115532 -206.10453391 280.97592199 C-206.10973915 276.04028883 -206.12193476 271.10490042 -206.15110016 266.16934586 C-206.17835787 261.51870815 -206.18660406 256.86841478 -206.18061066 252.21770477 C-206.18170627 250.51580048 -206.18959829 248.81388404 -206.20500183 247.1120491 C-206.31538944 234.28090263 -204.81417572 223.88216651 -195.72817993 214.14717102 C-186.47662121 205.68257062 -177.65409957 204.70543088 -165.50942993 204.80659485 C-164.07969684 204.80744223 -162.64996244 204.80696381 -161.2202301 204.80526733 C-157.35914084 204.80441029 -153.49833395 204.82198856 -149.63731003 204.84298921 C-145.59477946 204.86180478 -141.55224167 204.86351028 -137.50967407 204.86706543 C-129.86357106 204.87637161 -122.21759747 204.90096595 -114.57155132 204.9311139 C-105.86296454 204.96470246 -97.15437142 204.9811551 -88.44573593 204.9962002 C-70.53981069 205.02751687 -52.63400573 205.08024945 -34.72817993 205.14717102 C-34.7318671 204.23387087 -34.73555428 203.32057072 -34.73935318 202.3795948 C-34.82776865 180.13616173 -34.89392094 157.89275903 -34.93542862 135.64918709 C-34.956036 124.89226589 -34.98412178 114.13546214 -35.02993774 103.37861633 C-35.06986129 94.00072838 -35.095626 84.62292552 -35.10453391 75.24495494 C-35.1097393 70.28137672 -35.12193589 65.31804185 -35.15110016 60.35454178 C-35.17835644 55.67763975 -35.18660434 51.00108013 -35.18061066 46.32410622 C-35.18170634 44.61252669 -35.18959921 42.90093509 -35.20500183 41.18942451 C-35.31928416 27.8293329 -33.74039218 18.35001372 -24.24380493 8.35029602 C-17.01201352 2.01686379 -9.39819067 -0.00204105 0 0 Z " fill="#2563EB" transform="translate(478.7281799316406,-0.1471710205078125)"/>
</svg>
