<?xml version="1.0" encoding="UTF-8"?>
<svg version="1.1" xmlns="http://www.w3.org/2000/svg" width="800" height="782">
<path d="M0 0 C14.52 0 29.04 0 44 0 C44 39.27 44 78.54 44 119 C79.97 119 115.94 119 153 119 C153 133.19 153 147.38 153 162 C117.03 162 81.06 162 44 162 C44 201.6 44 241.2 44 282 C29.48 282 14.96 282 0 282 C0 242.4 0 202.8 0 162 C-36.63 162 -73.26 162 -111 162 C-111 147.81 -111 133.62 -111 119 C-74.37 119 -37.74 119 0 119 C0 79.73 0 40.46 0 0 Z " fill="#2F6AEB" transform="translate(372,252)"/>
<path d="M0 0 C12.54 0 25.08 0 38 0 C38 35.31 38 70.62 38 107 C70.34 107 102.68 107 136 107 C136 118.55 136 130.1 136 142 C103.66 142 71.32 142 38 142 C38 176.98 38 211.96 38 248 C25.46 248 12.92 248 0 248 C0 213.02 0 178.04 0 142 C-32.34 142 -64.68 142 -98 142 C-98 130.45 -98 118.9 -98 107 C-65.66 107 -33.32 107 0 107 C0 71.69 0 36.38 0 0 Z " fill="#316CEC" transform="translate(588,76)"/>
<path d="M0 0 C12.54 0 25.08 0 38 0 C38 35.31 38 70.62 38 107 C70.34 107 102.68 107 136 107 C136 117.89 136 128.78 136 140 C103.66 140 71.32 140 38 140 C38 175.31 38 210.62 38 247 C25.79 247 13.58 247 1 247 C0 246 0 246 -0.12304783 244.22151089 C-0.12212604 243.44075223 -0.12120424 242.65999357 -0.12025452 241.85557556 C-0.12231651 240.51566307 -0.12231651 240.51566307 -0.12442017 239.14868164 C-0.11902725 237.66730713 -0.11902725 237.66730713 -0.11352539 236.15600586 C-0.11367142 235.12198135 -0.11381744 234.08795685 -0.1139679 233.02259827 C-0.11326827 229.58665914 -0.10547358 226.15077347 -0.09765625 222.71484375 C-0.09579225 220.33972707 -0.09436826 217.96461 -0.09336853 215.5894928 C-0.08954197 209.32423856 -0.0797105 203.05900733 -0.06866455 196.79376221 C-0.05665953 189.28396836 -0.05204885 181.77416684 -0.04621124 174.26436615 C-0.03649882 162.84289474 -0.01734322 151.42147387 0 140 C-32.67 140 -65.34 140 -99 140 C-99 129.11 -99 118.22 -99 107 C-66.33 107 -33.66 107 0 107 C0 71.69 0 36.38 0 0 Z " fill="#326CEC" transform="translate(582,453)"/>
<path d="M0 0 C12.21 0 24.42 0 37 0 C37 34.98 37 69.96 37 106 C70 106 103 106 137 106 C137 116.89 137 127.78 137 139 C104 139 71 139 37 139 C37 174.97 37 210.94 37 248 C24.79 248 12.58 248 0 248 C0 212.03 0 176.06 0 139 C-33 139 -66 139 -100 139 C-100 128.11 -100 117.22 -100 106 C-67 106 -34 106 0 106 C0 71.02 0 36.04 0 0 Z " fill="#326CEC" transform="translate(168,76)"/>
<path d="M0 0 C12.21 0 24.42 0 37 0 C37 35.31 37 70.62 37 107 C69.20691748 106.96038235 69.20691748 106.96038235 101.41381836 106.90991211 C107.63000488 106.90539551 107.63000488 106.90539551 110.53614807 106.90455627 C112.57443968 106.90301642 114.61273035 106.89949065 116.65101624 106.89442444 C119.73082065 106.88714939 122.81056919 106.8860925 125.89038086 106.88647461 C126.80488227 106.8828765 127.71938368 106.87927839 128.66159725 106.87557125 C134.88597366 106.88597366 134.88597366 106.88597366 136 108 C136 118.56 136 129.12 136 140 C103.33 140 70.66 140 37 140 C37 175.31 37 210.62 37 247 C24.79 247 12.58 247 0 247 C0 211.69 0 176.38 0 140 C-33 140 -66 140 -100 140 C-100 129.11 -100 118.22 -100 107 C-67 107 -34 107 0 107 C0 71.69 0 36.38 0 0 Z " fill="#326CEC" transform="translate(170,453)"/>
<path d="M0 0 C10.89 0 21.78 0 33 0 C33 24.42 33 48.84 33 74 C54.78 74 76.56 74 99 74 C99 83.9 99 93.8 99 104 C77.22 104 55.44 104 33 104 C33 128.75 33 153.5 33 179 C22.11 179 11.22 179 0 179 C0 154.25 0 129.5 0 104 C-22.44 104 -44.88 104 -68 104 C-68 94.1 -68 84.2 -68 74 C-45.56 74 -23.12 74 0 74 C0 49.58 0 25.16 0 0 Z " fill="#336DEC" transform="translate(379,603)"/>
<path d="M0 0 C11.22 0 22.44 0 34 0 C34 24.42 34 48.84 34 74 C55.78 74 77.56 74 100 74 C100 83.57 100 93.14 100 103 C78.22 103 56.44 103 34 103 C34 127.75 34 152.5 34 178 C22.78 178 11.56 178 0 178 C0 153.25 0 128.5 0 103 C-22.11 103 -44.22 103 -67 103 C-67 93.43 -67 83.86 -67 74 C-44.89 74 -22.78 74 0 74 C0 49.58 0 25.16 0 0 Z " fill="#346DEC" transform="translate(700,304)"/>
<path d="M0 0 C8.25 0 16.5 0 25 0 C25 24.42 25 48.84 25 74 C46.78 74 68.56 74 91 74 C91 81.59 91 89.18 91 97 C69.22 97 47.44 97 25 97 C25 121.09 25 145.18 25 170 C16.75 170 8.5 170 0 170 C0 145.91 0 121.82 0 97 C-21.78 97 -43.56 97 -66 97 C-66 89.41 -66 81.82 -66 74 C-44.22 74 -22.44 74 0 74 C0 49.58 0 25.16 0 0 Z " fill="#3770EC" transform="translate(382,0)"/>
<path d="M0 0 C8.25 0 16.5 0 25 0 C25 24.09 25 48.18 25 73 C46.78 73 68.56 73 91 73 C91 80.59 91 88.18 91 96 C69.22 96 47.44 96 25 96 C25 120.09 25 144.18 25 169 C16.75 169 8.5 169 0 169 C0 144.91 0 120.82 0 96 C-21.78 96 -43.56 96 -66 96 C-66 88.41 -66 80.82 -66 73 C-44.22 73 -22.44 73 0 73 C0 48.91 0 24.82 0 0 Z " fill="#3870EC" transform="translate(66,308)"/>
</svg>
